<svg width="30" height="30" viewBox="0 0 30 30" fill="none" xmlns="http://www.w3.org/2000/svg">
<path d="M15.0001 20.6252C18.1067 20.6252 20.6251 18.1068 20.6251 15.0002C20.6251 11.8936 18.1067 9.37524 15.0001 9.37524C11.8935 9.37524 9.37512 11.8936 9.37512 15.0002C9.37512 18.1068 11.8935 20.6252 15.0001 20.6252Z" stroke="#B6C2CC" stroke-width="2" stroke-linecap="round" stroke-linejoin="round"/>
<path d="M23.1335 9.45125C23.4108 9.85837 23.6571 10.2857 23.8703 10.7298L26.9109 12.4177C27.2813 14.1186 27.2825 15.8792 26.9147 17.5807L23.8724 19.2695C23.6584 19.7132 23.4115 20.1402 23.1336 20.5469L23.1921 24.024C21.9042 25.1952 20.3801 26.0766 18.7227 26.6088L15.739 24.8185C15.2477 24.8551 14.7545 24.8547 14.2633 24.8173L11.2813 26.6066C9.62303 26.0769 8.09768 25.1977 6.8081 24.0283L6.86666 20.5492C6.58939 20.1421 6.34309 19.7147 6.12986 19.2707L3.08928 17.5828C2.71894 15.8819 2.71767 14.1213 3.08556 12.4198L6.12782 10.731C6.34175 10.2873 6.58873 9.8603 6.86665 9.45362L6.80812 5.97646C8.09601 4.80526 9.62008 3.92386 11.2775 3.39172L14.2613 5.18199C14.7525 5.14542 15.2457 5.14581 15.7369 5.18315L18.7189 3.39388C20.3772 3.92362 21.9025 4.80281 23.1921 5.97215L23.1335 9.45125Z" stroke="#B6C2CC" stroke-width="2" stroke-linecap="round" stroke-linejoin="round"/>
</svg>
