<svg width="182" height="39" viewBox="0 0 182 39" fill="none" xmlns="http://www.w3.org/2000/svg">
<path d="M45.33 11.4V22.02H50.46V24H43.26V11.4H45.33ZM55.9821 24H53.5881L50.0241 11.4H52.2021L54.8481 21.246L57.7101 11.4H59.6181L62.4621 21.246L65.1081 11.4H67.2861L63.7221 24H61.3281L58.6641 14.802L55.9821 24ZM80.8225 17.466C81.3745 17.754 81.8065 18.156 82.1185 18.672C82.4305 19.176 82.5865 19.752 82.5865 20.4C82.5865 21.432 82.2205 22.29 81.4885 22.974C80.7565 23.658 79.8625 24 78.8065 24H73.4065V11.4H78.4105C79.4425 11.4 80.3125 11.736 81.0205 12.408C81.7405 13.08 82.1005 13.908 82.1005 14.892C82.1005 15.972 81.6745 16.83 80.8225 17.466ZM78.4105 13.344H75.4765V16.656H78.4105C78.8665 16.656 79.2505 16.5 79.5625 16.188C79.8745 15.864 80.0305 15.468 80.0305 15C80.0305 14.532 79.8745 14.142 79.5625 13.83C79.2505 13.506 78.8665 13.344 78.4105 13.344ZM75.4765 22.056H78.8065C79.2865 22.056 79.6885 21.888 80.0125 21.552C80.3485 21.204 80.5165 20.784 80.5165 20.292C80.5165 19.8 80.3485 19.386 80.0125 19.05C79.6885 18.702 79.2865 18.528 78.8065 18.528H75.4765V22.056ZM91.9687 22.866C91.0567 23.778 89.9347 24.234 88.6027 24.234C87.2707 24.234 86.1487 23.778 85.2367 22.866C84.3127 21.942 83.8507 20.82 83.8507 19.5C83.8507 18.18 84.3127 17.058 85.2367 16.134C86.1487 15.222 87.2707 14.766 88.6027 14.766C89.9347 14.766 91.0567 15.222 91.9687 16.134C92.8927 17.058 93.3547 18.18 93.3547 19.5C93.3547 20.82 92.8927 21.942 91.9687 22.866ZM85.7947 19.5C85.7947 20.316 86.0647 20.994 86.6047 21.534C87.1447 22.074 87.8107 22.344 88.6027 22.344C89.3947 22.344 90.0607 22.074 90.6007 21.534C91.1407 20.994 91.4107 20.316 91.4107 19.5C91.4107 18.684 91.1407 18.006 90.6007 17.466C90.0607 16.926 89.3947 16.656 88.6027 16.656C87.8107 16.656 87.1447 16.926 86.6047 17.466C86.0647 18.006 85.7947 18.684 85.7947 19.5ZM102.727 22.866C101.815 23.778 100.693 24.234 99.3605 24.234C98.0285 24.234 96.9065 23.778 95.9945 22.866C95.0705 21.942 94.6085 20.82 94.6085 19.5C94.6085 18.18 95.0705 17.058 95.9945 16.134C96.9065 15.222 98.0285 14.766 99.3605 14.766C100.693 14.766 101.815 15.222 102.727 16.134C103.651 17.058 104.113 18.18 104.113 19.5C104.113 20.82 103.651 21.942 102.727 22.866ZM96.5525 19.5C96.5525 20.316 96.8225 20.994 97.3625 21.534C97.9025 22.074 98.5685 22.344 99.3605 22.344C100.153 22.344 100.819 22.074 101.359 21.534C101.899 20.994 102.169 20.316 102.169 19.5C102.169 18.684 101.899 18.006 101.359 17.466C100.819 16.926 100.153 16.656 99.3605 16.656C98.5685 16.656 97.9025 16.926 97.3625 17.466C96.8225 18.006 96.5525 18.684 96.5525 19.5ZM109.722 19.41L113.826 24H111.504L107.814 19.842V24H105.87V11.4H107.814V18.978L111.306 15H113.682L109.722 19.41Z" fill="#31516D"/>
<path d="M119.454 24.234C118.242 24.234 117.21 23.964 116.358 23.424C115.518 22.872 114.93 22.11 114.594 21.138L116.376 20.094C116.88 21.51 117.924 22.218 119.508 22.218C120.276 22.218 120.858 22.068 121.254 21.768C121.65 21.468 121.848 21.066 121.848 20.562C121.848 20.058 121.638 19.668 121.218 19.392C120.798 19.116 120.054 18.816 118.986 18.492C117.894 18.168 117.012 17.784 116.34 17.34C115.524 16.764 115.116 15.918 115.116 14.802C115.116 13.686 115.512 12.804 116.304 12.156C117.084 11.496 118.038 11.166 119.166 11.166C120.162 11.166 121.038 11.412 121.794 11.904C122.562 12.384 123.15 13.062 123.558 13.938L121.812 14.946C121.284 13.77 120.402 13.182 119.166 13.182C118.566 13.182 118.086 13.326 117.726 13.614C117.366 13.89 117.186 14.268 117.186 14.748C117.186 15.216 117.366 15.588 117.726 15.864C118.086 16.128 118.752 16.41 119.724 16.71C120.324 16.914 120.672 17.034 120.768 17.07C120.924 17.118 121.236 17.238 121.704 17.43C122.088 17.586 122.394 17.754 122.622 17.934C123.558 18.666 123.99 19.53 123.918 20.526C123.918 21.666 123.504 22.572 122.676 23.244C121.872 23.904 120.798 24.234 119.454 24.234ZM130.327 14.766C131.371 14.766 132.205 15.102 132.829 15.774C133.465 16.434 133.783 17.334 133.783 18.474V24H131.839V18.672C131.839 18 131.659 17.484 131.299 17.124C130.939 16.764 130.447 16.584 129.823 16.584C129.115 16.584 128.557 16.806 128.149 17.25C127.741 17.682 127.537 18.324 127.537 19.176V24H125.593V11.4H127.537V16.152C128.137 15.228 129.067 14.766 130.327 14.766ZM143.49 22.866C142.578 23.778 141.456 24.234 140.124 24.234C138.792 24.234 137.67 23.778 136.758 22.866C135.834 21.942 135.372 20.82 135.372 19.5C135.372 18.18 135.834 17.058 136.758 16.134C137.67 15.222 138.792 14.766 140.124 14.766C141.456 14.766 142.578 15.222 143.49 16.134C144.414 17.058 144.876 18.18 144.876 19.5C144.876 20.82 144.414 21.942 143.49 22.866ZM137.316 19.5C137.316 20.316 137.586 20.994 138.126 21.534C138.666 22.074 139.332 22.344 140.124 22.344C140.916 22.344 141.582 22.074 142.122 21.534C142.662 20.994 142.932 20.316 142.932 19.5C142.932 18.684 142.662 18.006 142.122 17.466C141.582 16.926 140.916 16.656 140.124 16.656C139.332 16.656 138.666 16.926 138.126 17.466C137.586 18.006 137.316 18.684 137.316 19.5ZM151.728 14.766C152.952 14.766 154.008 15.228 154.896 16.152C155.772 17.064 156.21 18.18 156.21 19.5C156.21 20.832 155.772 21.954 154.896 22.866C154.02 23.778 152.964 24.234 151.728 24.234C150.372 24.234 149.322 23.73 148.578 22.722V27.6H146.634V15H148.578V16.296C149.31 15.276 150.36 14.766 151.728 14.766ZM149.388 21.57C149.928 22.11 150.606 22.38 151.422 22.38C152.238 22.38 152.916 22.11 153.456 21.57C153.996 21.018 154.266 20.328 154.266 19.5C154.266 18.672 153.996 17.988 153.456 17.448C152.916 16.896 152.238 16.62 151.422 16.62C150.606 16.62 149.928 16.896 149.388 17.448C148.848 17.988 148.578 18.672 148.578 19.5C148.578 20.316 148.848 21.006 149.388 21.57Z" fill="#31516D"/>
<path d="M3.56433 19.213L13.4227 5.42609L15.5592 8.33139L5.7008 22.1183L3.56433 19.213Z" fill="black" stroke="#4DF4FF" stroke-width="0.5"/>
<path d="M8.69771 26.1937L16.3396 15.4006L18.519 18.3642L10.8771 29.1573L8.69771 26.1937Z" fill="black" stroke="#4DF4FF" stroke-width="0.5"/>
<rect x="0.350134" y="0.0537987" width="3.89505" height="26.0869" transform="matrix(0.807446 -0.589942 0.59309 0.805136 1.24352 10.6956)" fill="#4DF4FF" stroke="black" stroke-width="0.5"/>
<path d="M5.83411 22.2996L18.4724 18.3009L16.293 15.3373L3.65474 19.336L5.83411 22.2996Z" fill="black" stroke="#4DF4FF" stroke-width="0.5"/>
<path d="M10.918 29.2128L27.1396 24.0791L24.966 21.1232L8.74431 26.257L10.918 29.2128Z" fill="black" stroke="#4DF4FF" stroke-width="0.5"/>
<rect x="0.053589" y="-0.34877" width="3.52754" height="15.4989" transform="matrix(-0.59309 -0.805136 0.807446 -0.589942 17.4486 31.4151)" fill="#4DF4FF" stroke="black" stroke-width="0.5"/>
</svg>
