<svg width="21" height="20" viewBox="0 0 21 20" fill="none" xmlns="http://www.w3.org/2000/svg">
<path d="M10.5 10.625C11.9497 10.625 13.125 9.50571 13.125 8.125C13.125 6.74429 11.9497 5.625 10.5 5.625C9.05025 5.625 7.875 6.74429 7.875 8.125C7.875 9.50571 9.05025 10.625 10.5 10.625Z" stroke="white" stroke-width="2" stroke-linecap="round" stroke-linejoin="round"/>
<path d="M17.0625 8.125C17.0625 13.75 10.5 18.125 10.5 18.125C10.5 18.125 3.9375 13.75 3.9375 8.125C3.9375 6.4674 4.6289 4.87769 5.85961 3.70558C7.09032 2.53348 8.75952 1.875 10.5 1.875C12.2405 1.875 13.9097 2.53348 15.1404 3.70558C16.3711 4.87769 17.0625 6.4674 17.0625 8.125V8.125Z" stroke="white" stroke-width="2" stroke-linecap="round" stroke-linejoin="round"/>
</svg>
