<svg width="21" height="20" viewBox="0 0 21 20" fill="none" xmlns="http://www.w3.org/2000/svg">
<path d="M7.58595 9.75109C8.26667 11.0765 9.39476 12.146 10.7895 12.7883C10.8916 12.8343 11.0045 12.8543 11.1171 12.8462C11.2297 12.838 11.3381 12.8021 11.4317 12.742L13.4854 11.4377C13.5763 11.3801 13.6808 11.3449 13.7895 11.3354C13.8982 11.3259 14.0077 11.3423 14.108 11.3833L17.9501 12.9515C18.0807 13.0043 18.1896 13.096 18.2606 13.213C18.3316 13.3299 18.3608 13.4656 18.3437 13.5997C18.2223 14.5047 17.7587 15.3365 17.0396 15.9394C16.3206 16.5422 15.3955 16.8748 14.4375 16.8749C11.4787 16.8749 8.64104 15.7555 6.54884 13.7629C4.45664 11.7703 3.28125 9.06782 3.28125 6.24989C3.2813 5.33753 3.63053 4.45647 4.26356 3.77167C4.89658 3.08688 5.76999 2.64531 6.72025 2.52966C6.86102 2.51343 7.00352 2.54122 7.12628 2.60883C7.24903 2.67644 7.34539 2.78022 7.40083 2.90452L9.04888 6.56685C9.09151 6.66158 9.10888 6.76488 9.09944 6.86755C9.09001 6.97022 9.05406 7.06908 8.9948 7.15531L7.63009 9.14123C7.56798 9.23056 7.53126 9.33372 7.52352 9.44061C7.51579 9.5475 7.53729 9.65448 7.58595 9.75109V9.75109Z" stroke="white" stroke-width="2" stroke-linecap="round" stroke-linejoin="round"/>
</svg>
