<svg width="31" height="30" viewBox="0 0 31 30" fill="none" xmlns="http://www.w3.org/2000/svg">
<path d="M10.375 27.1875C11.4105 27.1875 12.25 26.348 12.25 25.3125C12.25 24.277 11.4105 23.4375 10.375 23.4375C9.33947 23.4375 8.5 24.277 8.5 25.3125C8.5 26.348 9.33947 27.1875 10.375 27.1875Z" fill="#B6C2CC"/>
<path d="M22.5625 27.1875C23.598 27.1875 24.4375 26.348 24.4375 25.3125C24.4375 24.277 23.598 23.4375 22.5625 23.4375C21.527 23.4375 20.6875 24.277 20.6875 25.3125C20.6875 26.348 21.527 27.1875 22.5625 27.1875Z" fill="#B6C2CC"/>
<path d="M5.95536 8.4375H26.9821L23.8885 19.2651C23.7766 19.6569 23.5401 20.0015 23.2148 20.2469C22.8895 20.4923 22.4931 20.625 22.0857 20.625H10.8518C10.4444 20.625 10.048 20.4923 9.7227 20.2469C9.39741 20.0015 9.16089 19.6569 9.04896 19.2651L4.81034 4.42995C4.75437 4.23406 4.63612 4.06173 4.47347 3.93905C4.31083 3.81636 4.11264 3.75 3.90891 3.75H1.9375" stroke="#B6C2CC" stroke-width="2" stroke-linecap="round" stroke-linejoin="round"/>
</svg>
