<svg width="111" height="24" viewBox="0 0 111 24" fill="none" xmlns="http://www.w3.org/2000/svg">
<path d="M10.7622 3.28886C10.906 2.8163 11.575 2.81631 11.7188 3.28886L13.0701 7.72855C13.2623 8.36014 13.8449 8.7918 14.5051 8.7918H19.01C19.4864 8.7918 19.6929 9.3949 19.3164 9.68688L15.5618 12.5991C15.0701 12.9804 14.8649 13.6258 15.0461 14.2211L16.4533 18.8447C16.5953 19.3112 16.0538 19.6842 15.6686 19.3854L12.1598 16.6639C11.6188 16.2442 10.8622 16.2442 10.3212 16.6639L6.81245 19.3854C6.42716 19.6842 5.8857 19.3112 6.02767 18.8447L7.43489 14.2211C7.61607 13.6258 7.4109 12.9804 6.91921 12.5991L3.16461 9.68688C2.78816 9.3949 2.99463 8.7918 3.47105 8.7918H7.97592C8.63612 8.7918 9.2187 8.36014 9.41093 7.72855L10.7622 3.28886Z" fill="#FBFF49" stroke="#FBFF49"/>
<path d="M32.5382 3.50736C32.6763 3.02362 33.3618 3.02362 33.4999 3.50736L34.6971 7.70337C34.8809 8.34758 35.4696 8.7918 36.1396 8.7918H40.2638C40.7324 8.7918 40.9436 9.37837 40.5826 9.67704L37.0319 12.6146C36.5731 12.9942 36.3823 13.6093 36.5457 14.1819L37.8479 18.7458C37.9827 19.2182 37.4268 19.5814 37.0484 19.2683L33.9752 16.7257C33.4204 16.2667 32.6177 16.2667 32.0629 16.7257L28.9897 19.2683C28.6113 19.5814 28.0554 19.2182 28.1902 18.7458L29.4924 14.1819C29.6558 13.6093 29.465 12.9942 29.0062 12.6146L25.4555 9.67704C25.0945 9.37837 25.3057 8.7918 25.7743 8.7918H29.8986C30.5685 8.7918 31.1572 8.34758 31.341 7.70337L32.5382 3.50736Z" fill="#FBFF49" stroke="#FBFF49"/>
<path d="M55.0243 3.09619C55.1736 2.63465 55.8265 2.63465 55.9758 3.09619L57.4818 7.75333C57.682 8.37238 58.2584 8.7918 58.909 8.7918H63.7927C64.2765 8.7918 64.4782 9.41039 64.0875 9.69564L60.1284 12.5858C59.6051 12.9678 59.3862 13.6425 59.5856 14.2589L61.0959 18.9293C61.245 19.3904 60.7167 19.7727 60.3253 19.487L56.3845 16.6102C55.8576 16.2255 55.1425 16.2255 54.6156 16.6102L54.9104 17.014L54.6156 16.6102L50.6748 19.487C50.2834 19.7727 49.7551 19.3904 49.9042 18.9293L51.4145 14.2589C51.6139 13.6425 51.395 12.9678 50.8717 12.5858L46.9126 9.69564C46.5219 9.41039 46.7236 8.7918 47.2074 8.7918H52.0911C52.7417 8.7918 53.3181 8.37238 53.5183 7.75333L55.0243 3.09619Z" fill="#FBFF49" stroke="#FBFF49"/>
<path d="M77.5002 3.50736C77.6382 3.02361 78.3238 3.02362 78.4618 3.50736L79.659 7.70337C79.8429 8.34758 80.4316 8.7918 81.1015 8.7918H85.2258C85.6943 8.7918 85.9055 9.37837 85.5445 9.67704L81.9938 12.6146C81.535 12.9942 81.3442 13.6093 81.5076 14.1819L82.8098 18.7458C82.9446 19.2182 82.3887 19.5814 82.0103 19.2683L78.9372 16.7257C78.3823 16.2667 77.5796 16.2667 77.0248 16.7257L73.9517 19.2683C73.5732 19.5814 73.0173 19.2182 73.1521 18.7458L74.4544 14.1819C74.6177 13.6093 74.4269 12.9942 73.9681 12.6146L70.4175 9.67704C70.0565 9.37837 70.2677 8.7918 70.7362 8.7918H74.8605C75.5304 8.7918 76.1191 8.34757 76.3029 7.70337L77.5002 3.50736Z" fill="#FBFF49" stroke="#FBFF49"/>
<path d="M99.2812 3.28886C99.425 2.8163 100.094 2.81631 100.238 3.28886L101.589 7.72855C101.781 8.36014 102.364 8.7918 103.024 8.7918H107.529C108.005 8.7918 108.212 9.39489 107.835 9.68688L104.081 12.5991C103.589 12.9804 103.384 13.6258 103.565 14.2211L104.972 18.8447C105.114 19.3112 104.573 19.6842 104.188 19.3854L100.679 16.6639C100.138 16.2442 99.3813 16.2442 98.8402 16.6639L95.3315 19.3854C94.9462 19.6842 94.4047 19.3112 94.5467 18.8447L95.9539 14.2211C96.1351 13.6258 95.9299 12.9804 95.4383 12.5991L91.6836 9.68688C91.3072 9.3949 91.5137 8.7918 91.9901 8.7918H96.495C97.1552 8.7918 97.7377 8.36014 97.93 7.72855L99.2812 3.28886Z" stroke="#FBFF49"/>
</svg>
