<svg width="30" height="30" viewBox="0 0 30 30" fill="none" xmlns="http://www.w3.org/2000/svg">
<path d="M15 26.25C21.2132 26.25 26.25 21.2132 26.25 15C26.25 8.7868 21.2132 3.75 15 3.75C8.7868 3.75 3.75 8.7868 3.75 15C3.75 21.2132 8.7868 26.25 15 26.25Z" stroke="#C1CDD8" stroke-width="2" stroke-linecap="round" stroke-linejoin="round"/>
<path d="M15 18.75C17.5888 18.75 19.6875 16.6513 19.6875 14.0625C19.6875 11.4737 17.5888 9.375 15 9.375C12.4112 9.375 10.3125 11.4737 10.3125 14.0625C10.3125 16.6513 12.4112 18.75 15 18.75Z" stroke="#C1CDD8" stroke-width="2" stroke-linecap="round" stroke-linejoin="round"/>
<path d="M7.47644 23.3641C8.18262 21.9757 9.25924 20.8098 10.5871 19.9954C11.915 19.181 13.4423 18.75 15 18.75C16.5577 18.75 18.085 19.181 19.4128 19.9954C20.7407 20.8098 21.8173 21.9757 22.5235 23.3641" stroke="#C1CDD8" stroke-width="2" stroke-linecap="round" stroke-linejoin="round"/>
</svg>
